<svg width="27" height="21" viewBox="0 0 27 21" fill="none" xmlns="http://www.w3.org/2000/svg">
<path d="M14.7238 20.1576H22.0669C23.4603 20.1576 24.6276 19.755 25.5314 18.9809C26.4351 18.2378 27 17.247 27 16.1322V4.02532C27 2.91062 26.4351 1.91977 25.5314 1.17663C24.6276 0.433496 23.4226 0 22.0669 0H14.7238V2.53905H22.0669C23.1213 2.53905 23.9121 3.18929 23.9121 4.02532V16.1322C23.9121 16.9683 23.1213 17.6495 22.0669 17.6495H14.7238V20.1576ZM0 7.67907V12.5095C0 13.0668 0.564854 13.5313 1.24268 13.5313H8.09623V17.3398C8.09623 17.6804 8.28452 17.9591 8.66109 18.1139C8.81172 18.1449 9 18.1449 9.07531 18.1449C9.33891 18.1449 9.56485 18.083 9.75314 17.9282L18.6025 10.6516C18.9414 10.3729 18.9038 9.81559 18.6025 9.50595L9.75314 2.26037C9.45188 2.01266 9.07531 1.9817 8.66109 2.07459C8.28452 2.22941 8.09623 2.47712 8.09623 2.81772V6.65726H1.24268C0.564854 6.65726 0 7.12172 0 7.67907Z" fill="white"/>
</svg>
